<?xml version="1.0" standalone="no"?>
<!DOCTYPE svg PUBLIC "-//W3C//DTD SVG 20010904//EN"
 "http://www.w3.org/TR/2001/REC-SVG-20010904/DTD/svg10.dtd">
<svg version="1.0" xmlns="http://www.w3.org/2000/svg"
 width="2498.000000pt" height="971.000000pt" viewBox="0 0 2498.000000 971.000000"
 preserveAspectRatio="xMidYMid meet">
<metadata>
Created by potrace 1.16, written by Peter Selinger 2001-2019
</metadata>
<g transform="translate(0.000000,971.000000) scale(0.100000,-0.100000)"
fill="#000000" stroke="none">
<path d="M7110 9704 c-152 -23 -244 -50 -340 -100 -224 -116 -353 -335 -407
-691 -26 -170 -26 -988 0 -1169 69 -488 232 -678 652 -761 71 -14 142 -18 340
-18 259 0 350 8 650 58 l130 22 3 678 2 677 -435 0 -435 0 0 -210 0 -210 150
0 150 0 0 -289 0 -288 -57 -16 c-157 -44 -310 -42 -402 5 -161 83 -209 344
-198 1068 5 362 18 490 57 606 42 121 111 201 195 224 74 21 191 9 254 -25 96
-53 136 -133 154 -312 l11 -113 279 0 280 0 -6 123 c-11 234 -69 380 -207 517
-122 122 -249 183 -445 215 -81 13 -309 18 -375 9z"/>
<path d="M13325 9699 c-203 -26 -360 -93 -469 -202 -132 -132 -188 -286 -189
-522 -1 -152 13 -220 73 -340 88 -178 234 -304 590 -510 262 -151 372 -240
421 -340 20 -41 24 -65 24 -135 -1 -163 -74 -257 -219 -280 -60 -9 -164 4
-209 26 -99 50 -137 131 -145 312 l-5 122 -283 0 -284 0 0 -132 c0 -253 55
-415 184 -544 135 -135 281 -183 581 -191 538 -15 824 136 925 487 31 108 39
347 15 456 -54 249 -210 419 -565 614 -370 204 -451 265 -506 384 -18 38 -24
69 -24 120 0 88 15 136 58 186 51 60 102 83 199 88 70 4 88 1 128 -18 87 -42
130 -132 142 -292 l6 -88 275 0 274 0 -4 153 c-4 120 -10 167 -28 222 -79 251
-250 381 -555 425 -84 12 -312 11 -410 -1z"/>
<path d="M0 9658 c-1 -7 131 -608 292 -1335 l292 -1323 307 0 307 0 10 43 c26
119 446 1886 448 1884 1 -1 93 -425 204 -942 110 -517 203 -950 207 -962 l5
-23 312 0 311 0 293 1328 c161 730 293 1330 293 1335 -1 4 -124 7 -275 7 -253
0 -275 -1 -280 -17 -2 -10 -75 -421 -162 -913 -87 -492 -160 -898 -164 -902
-3 -5 -94 405 -201 910 l-195 917 -331 3 c-259 2 -332 0 -335 -10 -3 -7 -97
-421 -209 -920 -112 -499 -206 -904 -210 -900 -3 4 -82 418 -175 920 l-169
912 -287 0 c-224 0 -288 -3 -288 -12z"/>
<path d="M3500 8335 l0 -1335 745 0 745 0 0 210 0 210 -460 0 -460 0 0 385 0
385 410 0 410 0 0 205 0 205 -410 0 -410 0 0 325 0 325 445 0 445 0 0 210 0
210 -730 0 -730 0 0 -1335z"/>
<path d="M5340 8335 l0 -1335 285 0 285 0 0 1335 0 1335 -285 0 -285 0 0
-1335z"/>
<path d="M8630 8335 l0 -1335 280 0 280 0 0 595 0 595 315 0 315 0 0 -595 0
-595 285 0 285 0 0 1335 0 1335 -285 0 -285 0 0 -535 0 -535 -315 0 -315 0 0
535 0 535 -280 0 -280 0 0 -1335z"/>
<path d="M10650 9445 l0 -225 310 0 310 0 0 -1110 0 -1110 280 0 280 0 0 1110
0 1110 310 0 310 0 0 225 0 225 -900 0 -900 0 0 -225z"/>
<path d="M15786 6219 c-219 -25 -394 -103 -506 -225 -62 -68 -125 -195 -147
-294 -23 -106 -23 -324 1 -410 39 -144 138 -289 269 -397 95 -78 154 -117 387
-255 277 -164 351 -225 411 -338 20 -37 24 -60 24 -130 0 -182 -96 -282 -270
-284 -92 0 -155 18 -205 61 -66 57 -100 148 -100 271 0 31 -3 74 -6 95 l-7 37
-280 0 -280 0 6 -167 c4 -131 10 -184 27 -243 65 -225 215 -368 455 -431 100
-27 421 -38 561 -20 363 48 562 197 645 483 16 55 22 112 26 228 5 137 3 166
-16 240 -48 193 -149 328 -355 474 -33 24 -155 97 -271 161 -236 132 -311 182
-373 249 -64 69 -92 136 -92 220 0 88 15 136 58 186 47 55 103 82 184 88 182
13 267 -80 285 -314 l6 -84 275 0 274 0 -5 148 c-3 88 -11 171 -21 207 -53
195 -183 334 -376 401 -137 48 -386 66 -584 43z"/>
<path d="M23955 6219 c-210 -27 -361 -93 -475 -208 -128 -129 -177 -255 -187
-482 -9 -194 29 -330 131 -474 92 -128 233 -237 531 -411 199 -116 282 -173
349 -244 75 -78 100 -135 100 -225 0 -205 -135 -318 -341 -285 -166 27 -225
114 -240 353 l-6 107 -281 -2 -281 -3 -3 -80 c-4 -103 14 -260 40 -344 65
-214 213 -349 453 -412 99 -26 402 -38 547 -20 308 36 509 156 608 362 50 105
69 191 77 344 9 193 -26 331 -118 469 -96 143 -240 255 -544 421 -274 149
-368 224 -422 334 -23 46 -28 69 -28 131 1 171 103 270 277 270 149 0 225 -88
248 -288 5 -48 10 -93 10 -99 0 -10 62 -13 276 -13 l277 0 -6 138 c-8 214 -53
350 -151 459 -130 144 -342 214 -641 212 -71 -1 -161 -5 -200 -10z"/>
<path d="M402 4877 c-200 -721 -366 -1322 -369 -1334 l-5 -23 279 0 280 0 75
293 75 292 374 3 374 2 74 -295 73 -295 300 0 c236 0 299 3 296 13 -3 6 -166
607 -364 1335 l-359 1322 -370 0 -370 0 -363 -1313z m833 211 c69 -296 125
-542 125 -548 0 -6 -89 -10 -256 -10 -239 0 -255 1 -250 18 3 9 57 253 121
542 116 528 124 563 131 545 2 -5 60 -252 129 -547z"/>
<path d="M2480 4855 l0 -1335 265 0 265 0 2 962 3 962 354 -949 c195 -523 356
-956 359 -962 3 -10 87 -13 373 -13 l369 0 0 1335 0 1335 -260 0 -260 0 -2
-917 -3 -917 -351 915 -351 914 -382 3 -381 2 0 -1335z"/>
<path d="M4940 4854 l0 -1335 548 3 547 4 96 26 c338 92 514 315 591 748 9 55
13 196 13 525 0 381 -3 468 -18 568 -79 521 -281 745 -713 787 -54 5 -316 10
-581 10 l-483 0 0 -1336z m943 901 c170 -44 248 -182 277 -490 13 -142 13
-625 -1 -780 -26 -306 -86 -448 -217 -512 -55 -27 -63 -28 -244 -31 l-188 -4
0 916 0 916 158 0 c107 0 176 -5 215 -15z"/>
<path d="M7980 4855 l0 -1335 280 0 280 0 2 998 3 999 236 -996 236 -996 270
-3 270 -2 256 1017 255 1018 1 -1017 1 -1018 275 0 275 0 0 1335 0 1335 -439
0 -439 0 -10 -42 c-5 -24 -103 -427 -218 -896 -136 -557 -211 -847 -216 -835
-7 16 -408 1754 -408 1767 0 3 -205 6 -455 6 l-455 0 0 -1335z"/>
<path d="M11060 4855 l0 -1335 745 0 745 0 0 210 0 210 -465 0 -465 0 0 380 0
380 415 0 415 0 0 210 0 210 -415 0 -415 0 0 325 0 325 450 0 450 0 0 210 0
210 -730 0 -730 0 0 -1335z"/>
<path d="M13430 6185 c0 -3 -162 -591 -360 -1306 -199 -715 -363 -1314 -367
-1330 l-5 -29 278 0 279 0 75 295 75 295 374 -2 375 -3 66 -265 c37 -146 70
-277 73 -292 l7 -28 295 0 c274 0 295 1 294 18 0 9 -161 609 -358 1332 l-357
1315 -372 3 c-205 1 -372 0 -372 -3z m470 -1090 c67 -286 124 -530 127 -542
l5 -23 -257 0 c-240 0 -257 1 -253 18 2 9 58 261 124 560 73 331 122 535 126
525 4 -10 62 -252 128 -538z"/>
<path d="M17183 5158 c3 -1031 3 -1033 25 -1116 73 -275 254 -450 549 -529 92
-25 111 -27 328 -27 245 0 282 5 436 63 231 87 394 280 455 541 16 69 18 162
21 1088 l4 1012 -286 0 -285 0 0 -962 c0 -607 -4 -986 -10 -1026 -17 -105 -48
-171 -104 -228 -63 -62 -129 -87 -231 -88 -203 0 -312 122 -335 378 -5 55 -9
512 -10 1014 l0 912 -280 0 -281 0 4 -1032z"/>
<path d="M19430 4856 l0 -1336 280 0 280 0 0 550 0 550 103 0 c182 0 282 -31
349 -110 66 -76 71 -106 79 -480 7 -334 14 -405 50 -484 l12 -26 277 0 277 0
-13 50 c-22 85 -34 223 -44 525 -12 342 -20 403 -66 495 -64 126 -180 203
-359 235 l-40 7 62 18 c185 51 308 169 370 353 26 78 27 92 28 277 0 220 -9
269 -73 400 -48 98 -143 195 -233 238 -140 66 -126 65 -761 69 l-578 4 0
-1335z m933 886 c93 -46 135 -128 144 -279 10 -161 -30 -289 -112 -361 -60
-53 -99 -62 -264 -62 l-141 0 0 366 0 366 163 -4 c145 -3 167 -6 210 -26z"/>
<path d="M21480 4855 l0 -1335 745 0 745 0 0 210 0 210 -460 0 -460 0 0 380 0
380 410 0 410 0 0 210 0 210 -410 0 -410 0 0 325 0 325 445 0 445 0 0 210 0
210 -730 0 -730 0 0 -1335z"/>
<path d="M935 2739 c-428 -54 -642 -286 -707 -764 -19 -141 -19 -1059 0 -1200
43 -312 151 -522 329 -641 77 -51 209 -100 325 -120 135 -23 448 -15 568 15
233 59 404 202 490 411 73 177 97 358 106 785 16 777 -47 1096 -256 1305 -87
87 -172 136 -302 174 -147 43 -376 57 -553 35z m331 -427 c111 -57 169 -197
193 -462 14 -149 14 -802 0 -950 -26 -282 -80 -410 -197 -467 -47 -23 -70 -28
-132 -28 -98 0 -156 23 -210 81 -114 124 -146 357 -137 988 6 382 13 476 48
607 36 134 92 209 185 244 58 22 197 15 250 -13z"/>
<path d="M7470 2739 c-196 -23 -356 -94 -470 -209 -87 -88 -131 -158 -170
-272 -64 -187 -79 -317 -87 -753 -6 -367 5 -642 32 -803 65 -381 242 -591 567
-673 129 -33 437 -38 573 -10 275 56 437 216 510 503 23 92 45 272 45 371 l0
47 -280 0 -280 0 0 -62 c0 -93 -18 -236 -37 -297 -20 -65 -66 -128 -113 -155
-56 -33 -161 -29 -236 10 -95 48 -147 142 -178 324 -35 205 -43 783 -15 1100
29 323 113 461 290 477 86 8 125 -3 169 -47 52 -52 80 -141 86 -280 3 -58 7
-115 10 -127 l4 -23 275 0 275 0 0 98 c-1 385 -147 637 -427 739 -131 47 -348
64 -543 42z"/>
<path d="M2470 1375 l0 -1335 280 0 280 0 0 580 0 580 395 0 395 0 0 210 0
210 -395 0 -395 0 0 335 0 335 415 0 415 0 0 210 0 210 -695 0 -695 0 0 -1335z"/>
<path d="M4100 1375 l0 -1335 285 0 285 0 0 580 0 580 390 0 390 0 0 210 0
210 -390 0 -390 0 0 335 0 335 410 0 410 0 0 210 0 210 -695 0 -695 0 0 -1335z"/>
<path d="M5740 1375 l0 -1335 285 0 285 0 0 1335 0 1335 -285 0 -285 0 0
-1335z"/>
<path d="M8810 1375 l0 -1335 745 0 745 0 0 210 0 210 -460 0 -460 0 0 380 0
380 410 0 410 0 0 210 0 210 -410 0 -410 0 0 325 0 325 445 0 445 0 0 210 0
210 -730 0 -730 0 0 -1335z"/>
</g>
</svg>
